<svg aria-hidden="true" style="position: absolute; width: 0; height: 0; overflow: hidden;" version="1.1" xmlns="http://www.w3.org/2000/svg" xmlns:xlink="http://www.w3.org/1999/xlink">
<defs>
<symbol id="icon-login" viewBox="0 0 32 32">
<path stroke-linejoin="round" stroke-linecap="round" stroke-miterlimit="4" stroke-width="3.2" d="M20 4h1.6c2.24 0 3.36 0 4.216 0.436 0.753 0.383 1.364 0.995 1.748 1.748 0.436 0.856 0.436 1.976 0.436 4.216v11.2c0 2.24 0 3.36-0.436 4.216-0.384 0.753-0.995 1.364-1.748 1.748-0.856 0.436-1.976 0.436-4.216 0.436h-1.6"></path>
<path stroke-linejoin="round" stroke-linecap="round" stroke-miterlimit="4" stroke-width="3.2" d="M13.333 9.333l6.667 6.667M20 16l-6.667 6.667M20 16h-16"></path>
</symbol>
<symbol id="icon-online" viewBox="0 0 32 32">
<path fill="#fff" style="fill: var(--color1, #fff)" d="M32 16c0 8.837-7.163 16-16 16s-16-7.163-16-16c0-8.837 7.163-16 16-16s16 7.163 16 16z"></path>
<path fill="#38cd3e" style="fill: var(--color2, #38cd3e)" d="M26.667 16c0 5.891-4.776 10.667-10.667 10.667s-10.667-4.776-10.667-10.667c0-5.891 4.776-10.667 10.667-10.667s10.667 4.776 10.667 10.667z"></path>
</symbol>
<symbol id="icon-logo" viewBox="0 0 32 32">
<path fill="#ffda44" style="fill: var(--color3, #ffda44)" d="M16 32c8.837 0 16-7.163 16-16s-7.163-16-16-16c-8.837 0-16 7.163-16 16s7.163 16 16 16z"></path>
<path fill="#338af3" style="fill: var(--color4, #338af3)" d="M0 16c0-8.836 7.163-16 16-16s16 7.163 16 16z"></path>
</symbol>
<symbol id="icon-eye" viewBox="0 0 32 32">
<path stroke-linejoin="round" stroke-linecap="round" stroke-miterlimit="4" stroke-width="2.3111" d="M1.333 16s5.333-10.667 14.667-10.667 14.667 10.667 14.667 10.667-5.333 10.667-14.667 10.667-14.667-10.667-14.667-10.667z"></path>
<path stroke-linejoin="round" stroke-linecap="round" stroke-miterlimit="4" stroke-width="2.3111" d="M16 20c2.209 0 4-1.791 4-4s-1.791-4-4-4v0c-2.209 0-4 1.791-4 4s1.791 4 4 4v0z"></path>
</symbol>
<symbol id="icon-eye-hiden" viewBox="0 0 24 24">
<path stroke="#787878" stroke-linecap="round" stroke-linejoin="round" stroke-width="2" d="m2 2 20 20M6.713 6.723C3.665 8.795 2 12 2 12s3.636 7 10 7c2.05 0 3.817-.727 5.271-1.712M11 5.058A8.595 8.595 0 0 1 12 5c6.364 0 10 7 10 7s-.692 1.332-2 2.834"/>
<path stroke="#787878" stroke-linecap="round" stroke-linejoin="round" stroke-width="2" d="M14 14.236a3 3 0 0 1-4.13-4.348"/>
</symbol>
<symbol id="icon-burger" viewBox="0 0 32 32">
            <path stroke-linejoin="round" stroke-linecap="round" stroke-miterlimit="4" stroke-width="2"
                d="M28 13.333h-24"></path>
            <path stroke-linejoin="round" stroke-linecap="round" stroke-miterlimit="4" stroke-width="2" d="M28 8h-24">
            </path>
            <path stroke-linejoin="round" stroke-linecap="round" stroke-miterlimit="4" stroke-width="2"
                d="M28 18.667h-24"></path>
            <path stroke-linejoin="round" stroke-linecap="round" stroke-miterlimit="4" stroke-width="2" d="M28 24h-24">
            </path>
        </symbol>
        <svg id="icon-book" width="16" height="16" viewBox="0 0 16 16" fill="none" xmlns="http://www.w3.org/2000/svg">
<path d="M14.6667 4.13333C14.6667 3.3866 14.6667 3.01323 14.5213 2.72801C14.3935 2.47713 14.1895 2.27316 13.9387 2.14532C13.6534 2 13.2801 2 12.5333 2H12.2667C10.7732 2 10.0265 2 9.45603 2.29065C8.95426 2.54631 8.54631 2.95426 8.29065 3.45603C8 4.02646 8 4.77319 8 6.26667V14L8.0667 13.8999C8.5298 13.2053 8.76135 12.858 9.06727 12.6065C9.33809 12.3839 9.65016 12.2169 9.9856 12.1151C10.3645 12 10.7819 12 11.6168 12H12.5333C13.2801 12 13.6534 12 13.9387 11.8547C14.1895 11.7268 14.3935 11.5229 14.5213 11.272C14.6667 10.9868 14.6667 10.6134 14.6667 9.86667V4.13333Z" stroke="black" stroke-width="1.5" stroke-linecap="round" stroke-linejoin="round"/>
<path d="M1.33325 4.13333C1.33325 3.3866 1.33325 3.01323 1.47858 2.72801C1.60641 2.47713 1.81038 2.27316 2.06126 2.14532C2.34648 2 2.71985 2 3.46659 2H3.73325C5.22673 2 5.97346 2 6.54389 2.29065C7.04566 2.54631 7.45361 2.95426 7.70927 3.45603C7.99992 4.02646 7.99992 4.77319 7.99992 6.26667V14L7.93322 13.8999C7.47012 13.2053 7.23857 12.858 6.93265 12.6065C6.66182 12.3839 6.34976 12.2169 6.01432 12.1151C5.63542 12 5.21799 12 4.38313 12H3.46659C2.71985 12 2.34648 12 2.06126 11.8547C1.81038 11.7268 1.60641 11.5229 1.47858 11.272C1.33325 10.9868 1.33325 10.6134 1.33325 9.86667V4.13333Z" stroke="black" stroke-width="1.5" stroke-linecap="round" stroke-linejoin="round"/>
</svg>
<svg id="icon-star" width="16" height="16" viewBox="0 0 16 16" fill="none" xmlns="http://www.w3.org/2000/svg">
<g clip-path="url(#clip0_6_316)">
<path d="M6.20021 4.69703L8 1.28579L9.79979 4.69703C9.95896 4.9987 10.2491 5.20947 10.5851 5.26762L14.3856 5.92519L11.6975 8.69103C11.4598 8.93563 11.3489 9.27666 11.3975 9.61427L11.9465 13.4319L8.48537 11.7301C8.17929 11.5795 7.82071 11.5796 7.51463 11.7301L4.05348 13.4319L4.6025 9.61427C4.65105 9.27666 4.54024 8.93563 4.30252 8.69103L1.6144 5.92519L5.41486 5.26762C5.75095 5.20947 6.04104 4.9987 6.20021 4.69703ZM14.5177 5.78928L14.5175 5.78947L14.5177 5.78928ZM3.8834 13.5155C3.88344 13.5155 3.88349 13.5155 3.88353 13.5155L3.8834 13.5155Z" fill="#FFC531" stroke="#FFC531" stroke-width="1.2"/>
</g>
<defs>
<clipPath id="clip0_6_316">
<rect width="16" height="16" fill="white"/>
</clipPath>
</defs>
</svg>
<symbol id="icon-modal-cross" viewBox="0 0 32 32">
            <svg viewBox="0 0 24 24" fill="none" xmlns="http://www.w3.org/2000/svg">
<path d="M18 6L6 18" stroke-width="1.8" stroke-linecap="round" stroke-linejoin="round"/>
<path d="M6 6L18 18" stroke-width="1.8" stroke-linecap="round" stroke-linejoin="round"/>
</svg>
        </symbol>
</defs>
</svg>
